<?xml version="1.0" encoding="UTF-8"?>
<svg width="557px" height="710px" viewBox="0 0 557 710" version="1.1" xmlns="http://www.w3.org/2000/svg" xmlns:xlink="http://www.w3.org/1999/xlink">
    <!-- Generator: Sketch 42 (36781) - http://www.bohemiancoding.com/sketch -->
    <title>bikeeleven</title>
    <desc>Created with Sketch.</desc>
    <defs>
        <path d="M106.25237,415 C47.5708063,415 0,369.339272 0,313.01391 C0,256.688548 47.5708063,211.027821 106.25237,211.027821 C164.933933,211.027821 212.504739,256.688548 212.504739,313.01391 C212.504739,369.339272 164.933933,415 106.25237,415 Z M106.25237,395.11592 C152.906035,395.11592 190.726303,358.357598 190.726303,313.01391 C190.726303,267.670223 152.906035,230.911901 106.25237,230.911901 C59.5987044,230.911901 21.778436,267.670223 21.778436,313.01391 C21.778436,358.357598 59.5987044,395.11592 106.25237,395.11592 Z" id="path-1"></path>
        <mask id="mask-2" maskContentUnits="userSpaceOnUse" maskUnits="objectBoundingBox" x="0" y="0" width="212.504739" height="203.972179" fill="white">
            <use xlink:href="#path-1"></use>
        </mask>
        <path d="M450.74763,415 C392.066067,415 344.495261,369.339272 344.495261,313.01391 C344.495261,256.688548 392.066067,211.027821 450.74763,211.027821 C509.429194,211.027821 557,256.688548 557,313.01391 C557,369.339272 509.429194,415 450.74763,415 Z M450.74763,395.11592 C497.401296,395.11592 535.221564,358.357598 535.221564,313.01391 C535.221564,267.670223 497.401296,230.911901 450.74763,230.911901 C404.093965,230.911901 366.273697,267.670223 366.273697,313.01391 C366.273697,358.357598 404.093965,395.11592 450.74763,395.11592 Z" id="path-3"></path>
        <mask id="mask-4" maskContentUnits="userSpaceOnUse" maskUnits="objectBoundingBox" x="0" y="0" width="212.504739" height="203.972179" fill="white">
            <use xlink:href="#path-3"></use>
        </mask>
        <path d="M312.403404,311.754987 L311.11242,313.009722 L166.65606,172.60952 L118.528105,320.732134 C117.162732,324.934321 112.651508,327.234719 108.438578,325.865855 L99.2816494,322.890589 C95.0747305,321.523678 92.7698336,317.013246 94.1365759,312.806846 L163.815848,98.3560983 C165.181221,94.1539115 169.692444,91.8535128 173.905375,93.2223769 L183.062303,96.1976433 C187.269222,97.5645541 189.574119,102.074986 188.207377,106.281387 L175.392023,145.72299 L307.570278,274.189842 L372.766494,118.936617 C373.664663,116.797789 376.50731,115.969382 379.112596,117.08498 L392.586035,122.854377 C395.192722,123.970573 396.578441,126.607647 395.679582,128.748121 L375.318043,177.235514 C375.331556,177.250072 375.344913,177.264819 375.35811,177.279754 L479.890117,295.577928 C481.170289,297.02669 480.46378,299.700554 478.314665,301.547951 L467.200351,311.101909 C465.637438,312.445402 463.74187,312.984123 462.330958,312.621445 C461.944053,312.860469 461.523981,312.99055 461.087001,312.987209 L313.033799,311.8551 C312.817384,311.853445 312.606638,311.819068 312.403404,311.754987 Z M329.200269,287.056814 L439.850231,287.902914 L364.604527,202.747853 L329.200269,287.056814 Z" id="path-5"></path>
        <mask id="mask-6" maskContentUnits="userSpaceOnUse" maskUnits="objectBoundingBox" x="0" y="0" width="388.877085" height="234.703299" fill="white">
            <use xlink:href="#path-5"></use>
        </mask>
        <path d="M159.235989,91.4639093 L159.395754,91.4639093 C159.881676,91.4639093 160.357484,91.5072403 160.819527,91.5902388 L160.819527,59.3077185 C160.819527,58.832083 160.861104,58.3661496 160.940821,57.9133482 L129.394342,26.36687 C126.497516,23.4700438 126.282492,18.9076037 128.748429,15.7694585 L128.748429,7.58061011 C128.748429,3.16368524 132.334434,-0.416939832 136.742392,-0.416939832 L184.896661,-0.416939832 C189.311605,-0.416939832 192.890624,3.16531686 192.890624,7.58061011 L192.890624,21.2833775 C192.890624,25.7003024 189.304619,29.2809275 184.896661,29.2809275 L174.307526,29.2809275 L215.575306,70.5487066 C217.022084,69.1066834 219.016883,68.2152085 221.216326,68.2152085 L269.370595,68.2152085 C273.785539,68.2152085 277.364558,71.7974652 277.364558,76.2127585 L277.364558,89.9155259 C277.364558,94.3324508 273.778553,97.9130758 269.370595,97.9130758 L221.216326,97.9130758 C218.513086,97.9130758 216.123236,96.5700773 214.676457,94.5151652 L211.764669,97.4269529 C208.641431,100.55019 203.576548,100.549076 200.447419,97.419947 L190.517394,87.4899216 L190.517394,107.461988 C190.517394,111.876932 186.935137,115.455951 182.519844,115.455951 L168.817077,115.455951 C165.196447,115.455951 162.137757,113.046383 161.152577,109.749683 C160.587384,109.875961 159.999468,109.942582 159.395754,109.942582 L123.015445,109.942582 C121.967742,113.143717 118.957713,115.455951 115.413596,115.455951 L112.930006,115.455951 C108.513086,115.455951 104.932464,111.876812 104.932464,107.449614 L104.932464,47.1330757 C104.932464,42.7112979 108.517249,39.1267388 112.930006,39.1267388 L115.413596,39.1267388 C119.830516,39.1267388 123.411137,42.7058774 123.411137,47.1330757 L123.411137,55.6390577 L159.235989,91.4639093 Z M150.836164,91.4639093 L123.411137,64.038883 L123.411137,91.4639093 L150.836164,91.4639093 Z" id="path-7"></path>
        <mask id="mask-8" maskContentUnits="userSpaceOnUse" maskUnits="objectBoundingBox" x="0" y="0" width="173.358626" height="115.455951" fill="white">
            <use xlink:href="#path-7"></use>
        </mask>
        <path d="M371.504845,83.2102448 C370.700695,84.4578005 370.233412,85.943215 370.233412,87.5375419 L370.233412,122.207435 C370.233412,126.625286 373.811718,130.208655 378.225782,130.208655 L391.278958,130.208655 C395.681585,130.208655 399.271327,126.626387 399.271327,122.207435 L399.271327,87.5375419 C399.271327,86.7959678 399.170503,86.0779066 398.981826,85.3963594 C402.139794,85.7932868 405.044385,86.2412568 407.550666,86.7466761 C426.930806,90.6548961 428.921966,85.9743491 428.921966,85.9743491 C432.951368,84.2155599 437.860555,79.201386 440.250826,75.4852055 L445.576015,67.2060742 C447.967312,63.488298 446.335767,60.3685626 441.93415,60.2343859 C441.93415,60.2343859 343.675206,57.2106912 342.161118,57.6160055 C340.647029,58.0213197 330.612937,59.9921661 329.29825,60.4773343 C299.146817,71.6043326 329.440257,79.5445957 329.440257,79.5445957 C333.568266,81.1186239 340.561757,82.2817242 344.974026,82.3653334 C344.974026,82.3653334 357.167862,82.4988901 371.504845,83.2102448 Z" id="path-9"></path>
        <mask id="mask-10" maskContentUnits="userSpaceOnUse" maskUnits="objectBoundingBox" x="0" y="0" width="131.244021" height="72.6291291" fill="white">
            <use xlink:href="#path-9"></use>
        </mask>
    </defs>
    <g id="Page-1" stroke="none" stroke-width="1" fill="none" fill-rule="evenodd">
        <g id="bikeeleven" transform="translate(0.000000, 3.000000)" stroke="#000000">
            <g id="bikeandnumber" fill-rule="evenodd">
                <g id="bike" transform="translate(0.000000, 292.240057)">
                    <use id="Combined-Shape" mask="url(#mask-2)" stroke-width="14" fill="#4A4A4A" xlink:href="#path-1"></use>
                    <use id="Combined-Shape" mask="url(#mask-4)" stroke-width="14" fill="#4A4A4A" xlink:href="#path-3"></use>
                    <use id="Combined-Shape" mask="url(#mask-6)" stroke-width="12" fill="#4990E2" xlink:href="#path-5"></use>
                    <use id="Combined-Shape" mask="url(#mask-8)" stroke-width="12" fill="#4A4A4A" xlink:href="#path-7"></use>
                    <use id="Combined-Shape" mask="url(#mask-10)" stroke-width="12" fill="#4A4A4A" xlink:href="#path-9"></use>
                </g>
                <g id="circle" transform="translate(146.686924, 0.000000)" stroke-width="1" fill="#4990E2">
                    <g id="Shape">
                        <path d="M131.5,0 C58.8714199,0 0,59.3191113 0,132.5 C0,205.680889 58.8714199,265 131.5,265 C204.12858,265 263,205.680889 263,132.5 C263,59.3191113 204.12858,0 131.5,0 Z M131.5,244.296875 C70.2204863,244.296875 20.546875,194.245518 20.546875,132.5 C20.546875,70.7544824 70.2204863,20.703125 131.5,20.703125 C192.779514,20.703125 242.453125,70.7544824 242.453125,132.5 C242.453125,194.245518 192.779514,244.296875 131.5,244.296875 Z" stroke-width="6" fill-rule="nonzero"></path>
                    </g>
                </g>
            </g>
            <g id="eleven" transform="translate(211.000000, 60.000000)" stroke-width="6" fill="#4990E2" fill-rule="nonzero">
                <g id="smallone">
                    <g id="one">
                        <path d="M30.2087604,40.3447266 L0,40.3447266 L0,26.5751953 L9.45483333,26.5751953 C12.8128854,26.5751953 16.0260208,25.903793 19.0017083,24.5956875 C22.0234167,23.287582 24.6015625,21.4887305 26.7356563,19.1996836 C28.8692604,16.88475 30.6141354,14.104957 31.8992917,10.809082 C33.2378125,7.55616797 33.8806354,3.92431641 33.8806354,0 L47,0 L47,141 L30.2087604,141 L30.2087604,40.3447266 Z" id="Shape"></path>
                    </g>
                </g>
                <g id="smallone" transform="translate(59.000000, 0.000000)">
                    <g id="one">
                        <path d="M30.2087604,40.3447266 L0,40.3447266 L0,26.5751953 L9.45483333,26.5751953 C12.8128854,26.5751953 16.0260208,25.903793 19.0017083,24.5956875 C22.0234167,23.287582 24.6015625,21.4887305 26.7356563,19.1996836 C28.8692604,16.88475 30.6141354,14.104957 31.8992917,10.809082 C33.2378125,7.55616797 33.8806354,3.92431641 33.8806354,0 L47,0 L47,141 L30.2087604,141 L30.2087604,40.3447266 Z" id="Shape"></path>
                    </g>
                </g>
            </g>
        </g>
    </g>
</svg>