<?xml version="1.0" encoding="UTF-8"?>
<svg width="557px" height="710px" viewBox="0 0 557 710" version="1.1" xmlns="http://www.w3.org/2000/svg" xmlns:xlink="http://www.w3.org/1999/xlink">
    <!-- Generator: Sketch 42 (36781) - http://www.bohemiancoding.com/sketch -->
    <title>bikenine</title>
    <desc>Created with Sketch.</desc>
    <defs>
        <path d="M106.25237,415 C47.5708063,415 0,369.339272 0,313.01391 C0,256.688548 47.5708063,211.027821 106.25237,211.027821 C164.933933,211.027821 212.504739,256.688548 212.504739,313.01391 C212.504739,369.339272 164.933933,415 106.25237,415 Z M106.25237,395.11592 C152.906035,395.11592 190.726303,358.357598 190.726303,313.01391 C190.726303,267.670223 152.906035,230.911901 106.25237,230.911901 C59.5987044,230.911901 21.778436,267.670223 21.778436,313.01391 C21.778436,358.357598 59.5987044,395.11592 106.25237,395.11592 Z" id="path-1"></path>
        <mask id="mask-2" maskContentUnits="userSpaceOnUse" maskUnits="objectBoundingBox" x="0" y="0" width="212.504739" height="203.972179" fill="white">
            <use xlink:href="#path-1"></use>
        </mask>
        <path d="M450.74763,415 C392.066067,415 344.495261,369.339272 344.495261,313.01391 C344.495261,256.688548 392.066067,211.027821 450.74763,211.027821 C509.429194,211.027821 557,256.688548 557,313.01391 C557,369.339272 509.429194,415 450.74763,415 Z M450.74763,395.11592 C497.401296,395.11592 535.221564,358.357598 535.221564,313.01391 C535.221564,267.670223 497.401296,230.911901 450.74763,230.911901 C404.093965,230.911901 366.273697,267.670223 366.273697,313.01391 C366.273697,358.357598 404.093965,395.11592 450.74763,395.11592 Z" id="path-3"></path>
        <mask id="mask-4" maskContentUnits="userSpaceOnUse" maskUnits="objectBoundingBox" x="0" y="0" width="212.504739" height="203.972179" fill="white">
            <use xlink:href="#path-3"></use>
        </mask>
        <path d="M312.403404,311.754987 L311.11242,313.009722 L166.65606,172.60952 L118.528105,320.732134 C117.162732,324.934321 112.651508,327.234719 108.438578,325.865855 L99.2816494,322.890589 C95.0747305,321.523678 92.7698336,317.013246 94.1365759,312.806846 L163.815848,98.3560983 C165.181221,94.1539115 169.692444,91.8535128 173.905375,93.2223769 L183.062303,96.1976433 C187.269222,97.5645541 189.574119,102.074986 188.207377,106.281387 L175.392023,145.72299 L307.570278,274.189842 L372.766494,118.936617 C373.664663,116.797789 376.50731,115.969382 379.112596,117.08498 L392.586035,122.854377 C395.192722,123.970573 396.578441,126.607647 395.679582,128.748121 L375.318043,177.235514 C375.331556,177.250072 375.344913,177.264819 375.35811,177.279754 L479.890117,295.577928 C481.170289,297.02669 480.46378,299.700554 478.314665,301.547951 L467.200351,311.101909 C465.637438,312.445402 463.74187,312.984123 462.330958,312.621445 C461.944053,312.860469 461.523981,312.99055 461.087001,312.987209 L313.033799,311.8551 C312.817384,311.853445 312.606638,311.819068 312.403404,311.754987 Z M329.200269,287.056814 L439.850231,287.902914 L364.604527,202.747853 L329.200269,287.056814 Z" id="path-5"></path>
        <mask id="mask-6" maskContentUnits="userSpaceOnUse" maskUnits="objectBoundingBox" x="0" y="0" width="388.877085" height="234.703299" fill="white">
            <use xlink:href="#path-5"></use>
        </mask>
        <path d="M159.235989,91.4639093 L159.395754,91.4639093 C159.881676,91.4639093 160.357484,91.5072403 160.819527,91.5902388 L160.819527,59.3077185 C160.819527,58.832083 160.861104,58.3661496 160.940821,57.9133482 L129.394342,26.36687 C126.497516,23.4700438 126.282492,18.9076037 128.748429,15.7694585 L128.748429,7.58061011 C128.748429,3.16368524 132.334434,-0.416939832 136.742392,-0.416939832 L184.896661,-0.416939832 C189.311605,-0.416939832 192.890624,3.16531686 192.890624,7.58061011 L192.890624,21.2833775 C192.890624,25.7003024 189.304619,29.2809275 184.896661,29.2809275 L174.307526,29.2809275 L215.575306,70.5487066 C217.022084,69.1066834 219.016883,68.2152085 221.216326,68.2152085 L269.370595,68.2152085 C273.785539,68.2152085 277.364558,71.7974652 277.364558,76.2127585 L277.364558,89.9155259 C277.364558,94.3324508 273.778553,97.9130758 269.370595,97.9130758 L221.216326,97.9130758 C218.513086,97.9130758 216.123236,96.5700773 214.676457,94.5151652 L211.764669,97.4269529 C208.641431,100.55019 203.576548,100.549076 200.447419,97.419947 L190.517394,87.4899216 L190.517394,107.461988 C190.517394,111.876932 186.935137,115.455951 182.519844,115.455951 L168.817077,115.455951 C165.196447,115.455951 162.137757,113.046383 161.152577,109.749683 C160.587384,109.875961 159.999468,109.942582 159.395754,109.942582 L123.015445,109.942582 C121.967742,113.143717 118.957713,115.455951 115.413596,115.455951 L112.930006,115.455951 C108.513086,115.455951 104.932464,111.876812 104.932464,107.449614 L104.932464,47.1330757 C104.932464,42.7112979 108.517249,39.1267388 112.930006,39.1267388 L115.413596,39.1267388 C119.830516,39.1267388 123.411137,42.7058774 123.411137,47.1330757 L123.411137,55.6390577 L159.235989,91.4639093 Z M150.836164,91.4639093 L123.411137,64.038883 L123.411137,91.4639093 L150.836164,91.4639093 Z" id="path-7"></path>
        <mask id="mask-8" maskContentUnits="userSpaceOnUse" maskUnits="objectBoundingBox" x="0" y="0" width="173.358626" height="115.455951" fill="white">
            <use xlink:href="#path-7"></use>
        </mask>
        <path d="M371.504845,83.2102448 C370.700695,84.4578005 370.233412,85.943215 370.233412,87.5375419 L370.233412,122.207435 C370.233412,126.625286 373.811718,130.208655 378.225782,130.208655 L391.278958,130.208655 C395.681585,130.208655 399.271327,126.626387 399.271327,122.207435 L399.271327,87.5375419 C399.271327,86.7959678 399.170503,86.0779066 398.981826,85.3963594 C402.139794,85.7932868 405.044385,86.2412568 407.550666,86.7466761 C426.930806,90.6548961 428.921966,85.9743491 428.921966,85.9743491 C432.951368,84.2155599 437.860555,79.201386 440.250826,75.4852055 L445.576015,67.2060742 C447.967312,63.488298 446.335767,60.3685626 441.93415,60.2343859 C441.93415,60.2343859 343.675206,57.2106912 342.161118,57.6160055 C340.647029,58.0213197 330.612937,59.9921661 329.29825,60.4773343 C299.146817,71.6043326 329.440257,79.5445957 329.440257,79.5445957 C333.568266,81.1186239 340.561757,82.2817242 344.974026,82.3653334 C344.974026,82.3653334 357.167862,82.4988901 371.504845,83.2102448 Z" id="path-9"></path>
        <mask id="mask-10" maskContentUnits="userSpaceOnUse" maskUnits="objectBoundingBox" x="0" y="0" width="131.244021" height="72.6291291" fill="white">
            <use xlink:href="#path-9"></use>
        </mask>
    </defs>
    <g id="Page-1" stroke="none" stroke-width="1" fill="none" fill-rule="evenodd">
        <g id="bikenine" transform="translate(0.000000, 3.000000)" stroke="#000000">
            <g id="bikeandnumber" fill-rule="evenodd">
                <g id="bike" transform="translate(0.000000, 292.240057)">
                    <use id="Combined-Shape" mask="url(#mask-2)" stroke-width="14" fill="#4A4A4A" xlink:href="#path-1"></use>
                    <use id="Combined-Shape" mask="url(#mask-4)" stroke-width="14" fill="#4A4A4A" xlink:href="#path-3"></use>
                    <use id="Combined-Shape" mask="url(#mask-6)" stroke-width="12" fill="#4990E2" xlink:href="#path-5"></use>
                    <use id="Combined-Shape" mask="url(#mask-8)" stroke-width="12" fill="#4A4A4A" xlink:href="#path-7"></use>
                    <use id="Combined-Shape" mask="url(#mask-10)" stroke-width="12" fill="#4A4A4A" xlink:href="#path-9"></use>
                </g>
                <g id="circle" transform="translate(146.686924, 0.000000)" stroke-width="1" fill="#4990E2">
                    <g id="Shape">
                        <path d="M131.5,0 C58.8714199,0 0,59.3191113 0,132.5 C0,205.680889 58.8714199,265 131.5,265 C204.12858,265 263,205.680889 263,132.5 C263,59.3191113 204.12858,0 131.5,0 Z M131.5,244.296875 C70.2204863,244.296875 20.546875,194.245518 20.546875,132.5 C20.546875,70.7544824 70.2204863,20.703125 131.5,20.703125 C192.779514,20.703125 242.453125,70.7544824 242.453125,132.5 C242.453125,194.245518 192.779514,244.296875 131.5,244.296875 Z" stroke-width="6" fill-rule="nonzero"></path>
                    </g>
                </g>
            </g>
            <g id="nine" transform="translate(230.000000, 60.000000)" stroke-width="6" fill="#4990E2" fill-rule="nonzero">
                <path d="M20.0300124,103.701934 C21.9309317,111.117875 25.4710062,116.552136 30.6883975,119.843965 C35.8592795,123.145121 41.2161988,124.791035 46.6017391,124.791035 C52.3688944,124.791035 57.1951304,123.453455 61.1174161,120.856202 C65.0212174,118.344537 68.1605963,114.821183 70.5832547,110.517117 C73.0148571,106.153798 74.6724969,101.207276 75.7362484,95.6095214 C76.7427578,90.0891245 77.2549565,84.3196459 77.2549565,78.3274202 C72.8669814,84.3196459 67.8731925,88.3312879 62.4226584,90.406786 C57.0001491,92.5585447 51.7082236,93.5521284 46.6029317,93.5521284 C41.2179876,93.5521284 35.7394286,92.464179 30.336,90.2773074 C24.9134907,88.0915331 19.9757516,85.0564669 15.5597516,81.1134047 C11.1998012,77.1615642 7.58459627,72.4893619 4.80834783,67.0891167 C2.01182609,61.7053307 0.595677019,55.6873191 0.595677019,49.0866537 C0.595677019,42.4689805 1.62067081,36.1936576 3.59552795,30.2272179 C5.60795031,24.2695564 8.52432298,19.0657237 12.3440497,14.6250467 C16.2102857,10.2019261 20.971528,6.65278599 26.7386832,3.98640467 C32.4593292,1.35458755 39.0743851,0 46.6017391,0 C62.1233292,0 74.2258882,5.48638132 82.937441,16.4503658 C91.6388571,27.4154475 95.9988075,43.1372218 95.9988075,63.5739922 C95.9988075,72.2836226 95.3095155,81.2077704 93.9488199,90.2773074 C92.5785839,99.4329805 90.0444224,107.67956 86.3743602,115.077397 C82.6846211,122.49279 77.6538634,128.622175 71.2814907,133.328393 C64.8995776,138.11142 56.6632547,140.451911 46.6011429,140.451911 C41.3652671,140.451911 36.1848447,139.774891 31.0235031,138.403296 C25.9271553,137.0317 21.3901118,134.940292 17.3742112,131.982584 C13.3773913,129.085774 10.0418385,125.339673 7.32163975,120.666922 C4.60144099,116.003498 3.02668323,110.294918 2.49540373,103.701934 L20.0300124,103.701934 Z M46.5176646,77.8385837 C50.3284472,77.8385837 53.9985093,77.0671984 57.4091925,75.4382918 C60.8938137,73.8093852 63.8286708,71.6066031 66.3628323,68.7860545 C68.8409441,65.974284 70.8533665,62.673677 72.3541863,58.8589961 C73.8627578,55.0783307 74.6546087,51.0238949 74.6546087,46.6517977 C74.6546087,42.3142646 73.8627578,38.2762879 72.3541863,34.564751 C70.8533665,30.8702218 68.8409441,27.5866226 66.3628323,24.7748521 C63.8286708,21.9630817 60.8938137,19.7515214 57.4091925,18.1226148 C53.9985093,16.5282724 50.3284472,15.7053152 46.5176646,15.7053152 C42.8004969,15.7053152 39.3439006,16.5282724 36.1293913,18.1226148 C32.9429068,19.7515214 30.1016646,21.9630817 27.7070311,24.7748521 C25.3219379,27.5866226 23.3655652,30.8696732 21.9303354,34.564751 C20.4957019,38.2768366 19.7688447,42.3142646 19.7688447,46.6517977 C19.7688447,51.0238949 20.4957019,55.0783307 21.9303354,58.8589961 C23.3649689,62.673677 25.3219379,65.974284 27.7070311,68.7860545 C30.1016646,71.6066031 32.9429068,73.8093852 36.1293913,75.4382918 C39.3433043,77.0671984 42.7999006,77.8385837 46.5176646,77.8385837 Z" id="Shape"></path>
            </g>
        </g>
    </g>
</svg>