<?xml version="1.0" encoding="UTF-8"?>
<svg width="1744px" height="549px" viewBox="0 0 1744 549" version="1.1" xmlns="http://www.w3.org/2000/svg" xmlns:xlink="http://www.w3.org/1999/xlink">
    <!-- Generator: Sketch 42 (36781) - http://www.bohemiancoding.com/sketch -->
    <title>bikebutton</title>
    <desc>Created with Sketch.</desc>
    <defs>
        <radialGradient cx="46.7501462%" cy="50%" fx="46.7501462%" fy="50%" r="489.03505%" id="radialGradient-1">
            <stop stop-color="#FCFCFC" offset="0%"></stop>
            <stop stop-color="#000000" offset="100%"></stop>
        </radialGradient>
        <rect id="path-2" x="0" y="0" width="1744" height="549" rx="8"></rect>
        <mask id="mask-3" maskContentUnits="userSpaceOnUse" maskUnits="objectBoundingBox" x="0" y="0" width="1744" height="549" fill="white">
            <use xlink:href="#path-2"></use>
        </mask>
        <path d="M106.25237,429 C47.5708063,429 0,381.79891 0,323.573416 C0,265.347921 47.5708063,218.146832 106.25237,218.146832 C164.933933,218.146832 212.504739,265.347921 212.504739,323.573416 C212.504739,381.79891 164.933933,429 106.25237,429 Z M106.25237,408.445131 C152.906035,408.445131 190.726303,370.44677 190.726303,323.573416 C190.726303,276.700062 152.906035,238.7017 106.25237,238.7017 C59.5987044,238.7017 21.778436,276.700062 21.778436,323.573416 C21.778436,370.44677 59.5987044,408.445131 106.25237,408.445131 Z" id="path-4"></path>
        <mask id="mask-5" maskContentUnits="userSpaceOnUse" maskUnits="objectBoundingBox" x="0" y="0" width="212.504739" height="210.853168" fill="white">
            <use xlink:href="#path-4"></use>
        </mask>
        <path d="M450.74763,429 C392.066067,429 344.495261,381.79891 344.495261,323.573416 C344.495261,265.347921 392.066067,218.146832 450.74763,218.146832 C509.429194,218.146832 557,265.347921 557,323.573416 C557,381.79891 509.429194,429 450.74763,429 Z M450.74763,408.445131 C497.401296,408.445131 535.221564,370.44677 535.221564,323.573416 C535.221564,276.700062 497.401296,238.7017 450.74763,238.7017 C404.093965,238.7017 366.273697,276.700062 366.273697,323.573416 C366.273697,370.44677 404.093965,408.445131 450.74763,408.445131 Z" id="path-6"></path>
        <mask id="mask-7" maskContentUnits="userSpaceOnUse" maskUnits="objectBoundingBox" x="0" y="0" width="212.504739" height="210.853168" fill="white">
            <use xlink:href="#path-6"></use>
        </mask>
        <path d="M312.333855,322.341899 L311.11242,323.569086 L166.96127,178.739138 L117.271005,331.670049 C115.904741,335.874978 111.392795,338.177599 107.179864,336.808735 L98.022936,333.833469 C93.8160171,332.466558 91.5109477,327.956656 92.8794755,323.744761 L165.072948,101.556099 C166.439212,97.3511706 170.951158,95.0485493 175.164089,96.4174134 L184.321017,99.3926798 C188.527936,100.759591 190.833005,105.269492 189.464477,109.481388 L175.91941,151.168817 L306.66297,282.52804 L372.320268,125.861583 C373.216914,123.722076 376.129208,122.924679 378.821828,124.079159 L392.746918,130.049644 C395.440985,131.204745 396.898773,133.873906 396.001438,136.015059 L375.428886,185.103722 C375.498815,185.165891 375.565271,185.232392 375.627999,185.303258 L480.264295,303.513923 C481.545745,304.961614 480.780833,307.684483 478.558486,309.59333 L467.065444,319.465077 C466.061307,320.327563 464.931376,320.877193 463.875939,321.087212 C463.254396,322.522935 462.222315,323.466246 461.074705,323.458525 L313.016752,322.462473 C312.781595,322.460891 312.553175,322.419367 312.333855,322.341899 Z M328.61578,296.805597 L440.587676,297.558883 L364.380818,211.465781 L328.61578,296.805597 Z" id="path-8"></path>
        <mask id="mask-9" maskContentUnits="userSpaceOnUse" maskUnits="objectBoundingBox" x="0" y="0" width="388.877085" height="242.621001" fill="white">
            <use xlink:href="#path-8"></use>
        </mask>
        <path d="M160.068257,94.8611272 L160.43974,94.8611272 C160.567052,94.8611272 160.69367,94.8641056 160.819527,94.8699964 L160.819527,61.0428785 C160.819527,60.5667954 160.861139,60.1004278 160.940923,59.6472116 L127.996011,26.7022991 C124.988438,23.6947267 124.879824,18.8852795 127.666513,15.7454979 L127.666513,8.06747256 C127.666513,3.65054768 131.254923,0.0699226104 135.664569,0.0699226104 L185.974484,0.0699226104 C190.391689,0.0699226104 193.972541,3.6521793 193.972541,8.06747256 L193.972541,21.77024 C193.972541,26.1871648 190.384131,29.7677899 185.974484,29.7677899 L173.060628,29.7677899 L215.673636,72.3807976 C216.949646,71.5199516 218.48644,71.0173724 220.138503,71.0173724 L270.448418,71.0173724 C274.865622,71.0173724 278.446474,74.5996291 278.446474,79.0149223 L278.446474,92.7176897 C278.446474,97.1346146 274.858064,100.71524 270.448418,100.71524 L220.138503,100.71524 C218.146015,100.71524 216.323698,99.9863647 214.923441,98.7809362 L213.154166,100.550211 C210.030928,103.673448 204.962048,103.668337 201.845751,100.55204 L190.517394,89.2236825 L190.517394,111.352794 C190.517394,115.769998 186.935137,119.35085 182.519844,119.35085 L168.817077,119.35085 C165.078328,119.35085 161.938784,116.779777 161.062829,113.315874 C160.857209,113.331727 160.649415,113.3398 160.43974,113.3398 L123.161765,113.3398 C122.276968,116.795859 119.140597,119.35085 115.413596,119.35085 L112.930006,119.35085 C108.513086,119.35085 104.932464,115.768436 104.932464,111.350874 L104.932464,106.8864 C104.834587,106.386698 104.783296,105.870408 104.783296,105.342258 L104.783296,102.858669 C104.783296,102.330097 104.834589,101.813503 104.932464,101.313587 L104.932464,48.4466527 C104.932464,44.0283881 108.517249,40.446677 112.930006,40.446677 L115.413596,40.446677 C119.830516,40.446677 123.411137,44.029091 123.411137,48.4466527 L123.411137,58.2040074 L160.068257,94.8611272 Z M151.668432,94.8611272 L123.411137,66.6038328 L123.411137,94.8611272 L151.668432,94.8611272 Z" id="path-10"></path>
        <mask id="mask-11" maskContentUnits="userSpaceOnUse" maskUnits="objectBoundingBox" x="0" y="0" width="173.358626" height="119.35085" fill="white">
            <use xlink:href="#path-10"></use>
        </mask>
        <path d="M371.428158,86.0134088 C370.671064,87.2350399 370.233412,88.6754785 370.233412,90.2178876 L370.233412,126.602823 C370.233412,131.021442 373.811718,134.601236 378.225782,134.601236 L391.278958,134.601236 C395.681585,134.601236 399.271327,131.020225 399.271327,126.602823 L399.271327,90.2178876 C399.271327,89.5511138 399.189845,88.9034409 399.036305,88.2842875 C402.173201,88.6928484 405.058804,89.1536062 407.550666,89.67307 C426.930806,93.7131335 428.976921,88.8550898 428.976921,88.8550898 C432.986825,87.0365726 437.81367,81.9485923 440.146104,78.1999984 L445.680736,69.304963 C448.011156,65.5596072 446.335767,62.4050924 441.93415,62.2663893 C441.93415,62.2663893 343.675206,59.1406904 342.161118,59.5596779 C340.647029,59.9786655 330.612937,62.0159983 329.29825,62.5175335 C299.146817,74.0199005 329.47901,82.2447483 329.47901,82.2447483 C333.583793,83.8607397 340.561757,85.0574932 344.974026,85.143923 C344.974026,85.143923 357.124407,85.2814932 371.428158,86.0134088 Z" id="path-12"></path>
        <mask id="mask-13" maskContentUnits="userSpaceOnUse" maskUnits="objectBoundingBox" x="0" y="0" width="131.244021" height="75.0792684" fill="white">
            <use xlink:href="#path-12"></use>
        </mask>
    </defs>
    <g id="Page-1" stroke="none" stroke-width="1" fill="none" fill-rule="evenodd">
        <g id="bikebutton">
            <g>
                <g stroke="#000000">
                    <use id="Rectangle" mask="url(#mask-3)" stroke-width="24" fill="url(#radialGradient-1)" xlink:href="#path-2"></use>
                    <g id="bike" transform="translate(1107.000000, 60.000000)">
                        <use id="Combined-Shape" mask="url(#mask-5)" stroke-width="14" fill="#4A4A4A" xlink:href="#path-4"></use>
                        <use id="Combined-Shape" mask="url(#mask-7)" stroke-width="14" fill="#4A4A4A" xlink:href="#path-6"></use>
                        <use id="Combined-Shape" mask="url(#mask-9)" stroke-width="12" fill="#4990E2" xlink:href="#path-8"></use>
                        <use id="Combined-Shape" mask="url(#mask-11)" stroke-width="12" fill="#4A4A4A" xlink:href="#path-10"></use>
                        <use id="Combined-Shape" mask="url(#mask-13)" stroke-width="12" fill="#4A4A4A" xlink:href="#path-12"></use>
                    </g>
                </g>
                <text id="Show-Available-Bikes" font-family="LucidaGrande, Lucida Grande" font-size="100" font-weight="normal" fill="#4990E2">
                    <tspan x="83" y="301">Show Available Bikes</tspan>
                </text>
            </g>
        </g>
    </g>
</svg>