<?xml version="1.0" encoding="UTF-8"?>
<svg width="262px" height="812px" viewBox="0 0 262 812" version="1.1" xmlns="http://www.w3.org/2000/svg" xmlns:xlink="http://www.w3.org/1999/xlink">
    <!-- Generator: Sketch 42 (36781) - http://www.bohemiancoding.com/sketch -->
    <title>dockeleven</title>
    <desc>Created with Sketch.</desc>
    <defs></defs>
    <g id="Page-1" stroke="none" stroke-width="1" fill="none" fill-rule="evenodd">
        <g id="dockeleven" transform="translate(3.000000, 3.000000)" fill="#4990E2">
            <g id="eleven" transform="translate(61.000000, 71.000000)" stroke-width="6" stroke="#000000" fill-rule="nonzero">
                <g id="smallone">
                    <g id="one">
                        <path d="M30.2087604,40.3447266 L0,40.3447266 L0,26.5751953 L9.45483333,26.5751953 C12.8128854,26.5751953 16.0260208,25.903793 19.0017083,24.5956875 C22.0234167,23.287582 24.6015625,21.4887305 26.7356563,19.1996836 C28.8692604,16.88475 30.6141354,14.104957 31.8992917,10.809082 C33.2378125,7.55616797 33.8806354,3.92431641 33.8806354,0 L47,0 L47,141 L30.2087604,141 L30.2087604,40.3447266 Z" id="Shape"></path>
                    </g>
                </g>
                <g id="smallone" transform="translate(59.000000, 0.000000)">
                    <g id="one">
                        <path d="M30.2087604,40.3447266 L0,40.3447266 L0,26.5751953 L9.45483333,26.5751953 C12.8128854,26.5751953 16.0260208,25.903793 19.0017083,24.5956875 C22.0234167,23.287582 24.6015625,21.4887305 26.7356563,19.1996836 C28.8692604,16.88475 30.6141354,14.104957 31.8992917,10.809082 C33.2378125,7.55616797 33.8806354,3.92431641 33.8806354,0 L47,0 L47,141 L30.2087604,141 L30.2087604,40.3447266 Z" id="Shape"></path>
                    </g>
                </g>
            </g>
            <g id="dockandnumber" stroke-width="1" fill-rule="evenodd">
                <g id="Group">
                    <path d="M128,0 C57.3045,0 0,59.0952656 0,132 C0,204.904734 57.3045,264 128,264 C198.6955,264 256,204.904734 256,132 C256,59.0952656 198.6955,0 128,0 Z M128,243.375 C68.3515,243.375 20,193.512516 20,132 C20,70.4874844 68.3515,20.625 128,20.625 C187.6485,20.625 236,70.4874844 236,132 C236,193.512516 187.6485,243.375 128,243.375 Z" id="Shape" stroke="#000000" stroke-width="6" fill-rule="nonzero"></path>
                    <path d="M70.1015625,318 L185.609375,318 L219.710937,806 L36,806 L63.5224461,412.148438 L70.1015625,318 Z M94.283456,354 L90.4388067,434.257684 L74.3554688,770 C74.3554688,770 100.615234,790.097656 128.033203,790.097656 C155.451172,790.097656 181.710938,770 181.710938,770 L161.78295,354 L94.283456,354 Z" id="Combined-Shape" stroke="#020202" stroke-width="6"></path>
                </g>
            </g>
        </g>
    </g>
</svg>