<?xml version="1.0" encoding="UTF-8"?>
<svg width="262px" height="812px" viewBox="0 0 262 812" version="1.1" xmlns="http://www.w3.org/2000/svg" xmlns:xlink="http://www.w3.org/1999/xlink">
    <!-- Generator: Sketch 42 (36781) - http://www.bohemiancoding.com/sketch -->
    <title>dockfive</title>
    <desc>Created with Sketch.</desc>
    <defs></defs>
    <g id="Page-1" stroke="none" stroke-width="1" fill="none" fill-rule="evenodd">
        <g id="dockfive" transform="translate(3.000000, 3.000000)" fill="#4990E2">
            <g id="smallfive" transform="translate(81.000000, 62.000000)" stroke-width="6" stroke="#000000" fill-rule="nonzero">
                <g id="five">
                    <path d="M4.3308,74.8203281 L13.4712,0 L87.9084,0 L87.9084,15.9897305 L27.1962,15.9897305 L23.0994,54.6044531 L23.8308,54.8710313 C27.3372,51.7640742 31.4622,49.5526875 36.2244,48.244582 C40.9494,46.9364766 45.6558,46.2650742 50.3058,46.2650742 C56.8872,46.2650742 62.9712,47.4955195 68.6058,49.9657734 C74.1654,52.3925156 79.0212,55.7660508 83.0526,60.0346055 C87.093,64.3031602 90.2994,69.3378516 92.5962,75.1810898 C94.8744,80.9813672 95.9994,87.1776562 95.9994,93.7605938 C95.9994,99.8285508 95.0058,105.645352 92.9808,111.376781 C90.8622,117.022289 87.7872,122.022281 83.7462,126.523266 C79.7058,130.929516 74.568,134.414859 68.3526,137.03107 C62.109,139.647281 54.8058,140.998348 46.4622,140.998348 C34.7436,140.998348 24.6372,137.590113 16.1436,130.929516 C7.6122,124.191258 2.2308,114.311344 0,101.359172 L19.5096,101.359172 C21.2628,108.768832 24.5814,114.560848 29.4942,118.708781 C34.3974,122.856715 40.1256,125.016879 46.6878,125.016879 C51.1878,125.016879 55.2852,124.190707 58.941,122.538363 C62.6724,120.903094 65.8128,118.691707 68.4846,115.919625 C71.0814,113.080348 73.1814,109.74041 74.5776,105.773133 C76.0494,101.874703 76.7346,97.6584727 76.7346,93.2340469 C76.7346,88.6636641 75.8994,84.499207 74.1276,80.6944102 C72.2904,76.95075 69.9846,73.6813125 67.0128,70.9780781 C64.0596,68.284207 60.6378,66.1587422 56.7942,64.5752461 C52.9398,63.0473789 49.0122,62.2382813 44.9994,62.2382813 C40.518,62.2382813 36.168,63.2539219 31.9866,65.1987305 C27.8238,67.1865 24.2994,70.3623047 21.4116,74.8203281 L4.3308,74.8203281 Z" id="Shape"></path>
                </g>
            </g>
            <g id="dockandnumber" stroke-width="1" fill-rule="evenodd">
                <g id="Group">
                    <path d="M128,0 C57.3045,0 0,59.0952656 0,132 C0,204.904734 57.3045,264 128,264 C198.6955,264 256,204.904734 256,132 C256,59.0952656 198.6955,0 128,0 Z M128,243.375 C68.3515,243.375 20,193.512516 20,132 C20,70.4874844 68.3515,20.625 128,20.625 C187.6485,20.625 236,70.4874844 236,132 C236,193.512516 187.6485,243.375 128,243.375 Z" id="Shape" stroke="#000000" stroke-width="6" fill-rule="nonzero"></path>
                    <path d="M70.1015625,318 L185.609375,318 L219.710937,806 L36,806 L63.5224461,412.148438 L70.1015625,318 Z M94.283456,354 L90.4388067,434.257684 L74.3554688,770 C74.3554688,770 100.615234,790.097656 128.033203,790.097656 C155.451172,790.097656 181.710938,770 181.710938,770 L161.78295,354 L94.283456,354 Z" id="Combined-Shape" stroke="#020202" stroke-width="6"></path>
                </g>
            </g>
        </g>
    </g>
</svg>