<?xml version="1.0" encoding="UTF-8"?>
<svg width="262px" height="812px" viewBox="0 0 262 812" version="1.1" xmlns="http://www.w3.org/2000/svg" xmlns:xlink="http://www.w3.org/1999/xlink">
    <!-- Generator: Sketch 42 (36781) - http://www.bohemiancoding.com/sketch -->
    <title>dockthirteen</title>
    <desc>Created with Sketch.</desc>
    <defs></defs>
    <g id="Page-1" stroke="none" stroke-width="1" fill="none" fill-rule="evenodd">
        <g id="dockthirteen" transform="translate(3.000000, 3.000000)" fill="#4990E2">
            <g id="thirteen" transform="translate(53.000000, 68.000000)" stroke-width="6" stroke="#000000" fill-rule="nonzero">
                <g id="smallone">
                    <g id="one">
                        <path d="M30.2087604,40.3447266 L0,40.3447266 L0,26.5751953 L9.45483333,26.5751953 C12.8128854,26.5751953 16.0260208,25.903793 19.0017083,24.5956875 C22.0234167,23.287582 24.6015625,21.4887305 26.7356563,19.1996836 C28.8692604,16.88475 30.6141354,14.104957 31.8992917,10.809082 C33.2378125,7.55616797 33.8806354,3.92431641 33.8806354,0 L47,0 L47,141 L30.2087604,141 L30.2087604,40.3447266 Z" id="Shape"></path>
                    </g>
                </g>
                <g id="smallthree" transform="translate(52.000000, 0.000000)">
                    <g id="three">
                        <path d="M4.0956,42.1249844 C5.7084,28.9236537 9.8988,18.5763385 16.6584,11.12693 C23.4174,3.7120856 34.086,0 48.7488,0 C61.4424,0 71.5116,3.27482101 78.8988,9.80690661 C86.286,16.3389922 89.9802,25.0316148 89.9802,35.8502101 C89.9802,43.5997237 88.443,49.7719027 85.3116,54.3837549 C82.1718,58.9785992 77.2398,62.5617549 70.4436,65.1507782 C73.6968,66.1108949 76.8282,67.4824903 79.8564,69.2655642 C82.9692,71.0486381 85.6968,73.3287782 88.0596,76.1751128 C90.4968,79.0038911 92.4198,82.3385136 93.9,86.2393307 C95.3064,90.1055837 96,94.6658638 96,100.007405 C96,106.685428 94.7532,112.454907 92.2596,117.426665 C89.6916,122.467553 86.2698,126.701393 82.0134,130.036016 C77.673,133.447996 72.6282,136.037019 66.9852,137.820093 C61.2666,139.59384 55.1814,140.451911 48.75,140.451911 C35.5686,140.451911 24.6564,136.62077 16.05,128.939837 C7.4436,121.267681 2.1,109.985486 0,94.9242724 L19.5372,94.9242724 C21.45,105.897035 24.7776,113.603755 29.4372,118.077899 C34.0872,122.484012 40.5558,124.695572 48.75,124.695572 C52.4436,124.695572 56.0064,124.137607 59.3718,123.023323 C62.7564,121.917268 65.6814,120.271354 68.259,118.076802 C70.8462,115.882249 72.8994,113.284996 74.4942,110.2417 C75.9942,107.121047 76.7154,103.710163 76.7154,100.006856 C76.7154,92.5909144 74.2404,86.2815759 69.2154,81.112856 C64.2654,75.9693735 57.4308,73.3803502 48.7506,73.3803502 L37.641,73.3803502 L37.641,57.6240117 L48.7506,57.6240117 C52.782,57.6240117 56.2038,57.041358 59.0154,55.82393 C61.809,54.5982724 64.1058,53.0291673 65.8872,51.0919261 C67.659,49.1716926 68.9058,46.9771401 69.6192,44.5768482 C70.3974,42.1249844 70.6974,39.7076848 70.6974,37.307393 C70.6974,30.5179961 68.6538,25.1775525 64.5474,21.3112996 C60.4506,17.4280389 54.9942,15.4990272 48.2346,15.4990272 C44.0628,15.4990272 40.5564,16.2018327 37.641,17.6848016 C34.7538,19.1337549 32.316,21.0622179 30.3942,23.4712879 C28.4814,25.9143735 26.9628,28.7349222 25.8192,31.9664008 C24.7038,35.1896498 23.8878,38.6098599 23.4192,42.1249844 L4.0956,42.1249844 L4.0956,42.1249844 Z" id="Shape"></path>
                    </g>
                </g>
            </g>
            <g id="dockandnumber" stroke-width="1" fill-rule="evenodd">
                <g id="Group">
                    <path d="M128,0 C57.3045,0 0,59.0952656 0,132 C0,204.904734 57.3045,264 128,264 C198.6955,264 256,204.904734 256,132 C256,59.0952656 198.6955,0 128,0 Z M128,243.375 C68.3515,243.375 20,193.512516 20,132 C20,70.4874844 68.3515,20.625 128,20.625 C187.6485,20.625 236,70.4874844 236,132 C236,193.512516 187.6485,243.375 128,243.375 Z" id="Shape" stroke="#000000" stroke-width="6" fill-rule="nonzero"></path>
                    <path d="M70.1015625,318 L185.609375,318 L219.710937,806 L36,806 L63.5224461,412.148438 L70.1015625,318 Z M94.283456,354 L90.4388067,434.257684 L74.3554688,770 C74.3554688,770 100.615234,790.097656 128.033203,790.097656 C155.451172,790.097656 181.710938,770 181.710938,770 L161.78295,354 L94.283456,354 Z" id="Combined-Shape" stroke="#020202" stroke-width="6"></path>
                </g>
            </g>
        </g>
    </g>
</svg>