<?xml version="1.0" encoding="UTF-8"?>
<svg width="262px" height="812px" viewBox="0 0 262 812" version="1.1" xmlns="http://www.w3.org/2000/svg" xmlns:xlink="http://www.w3.org/1999/xlink">
    <!-- Generator: Sketch 42 (36781) - http://www.bohemiancoding.com/sketch -->
    <title>docksix</title>
    <desc>Created with Sketch.</desc>
    <defs></defs>
    <g id="Page-1" stroke="none" stroke-width="1" fill="none" fill-rule="evenodd">
        <g id="docksix" transform="translate(3.000000, 3.000000)" fill="#4990E2">
            <g id="smallsix" transform="translate(80.000000, 63.000000)" stroke-width="6" stroke="#000000" fill-rule="nonzero">
                <g id="six">
                    <path d="M75.8071111,36.161543 C75.8071111,33.7348008 75.2145185,31.3163203 73.8533333,28.8978398 C72.5757037,26.4534727 70.8068148,24.2850469 68.7048889,22.3226133 C66.602963,20.3778047 64.0008889,18.8113828 60.9733333,17.6068242 C57.9457778,16.3846406 54.741037,15.7650117 51.3253333,15.7650117 C45.2328889,15.7650117 40.3522963,17.1507773 36.5940741,19.8958711 C32.8536296,22.6497773 29.8533333,26.2469297 27.6494815,30.7049531 C25.464,35.1629766 23.8900741,40.137082 22.9828148,45.6448945 C22.0844444,51.1356328 21.5754074,56.5398984 21.3899259,61.8929414 L22.1401481,61.8929414 C30.6213333,53.8206914 39.7976296,49.7586797 49.7425185,49.7586797 C56.0761481,49.7586797 62.0482963,50.8861289 67.7146667,53.1492891 C73.3075556,55.4212617 78.1591111,58.5882539 82.2047407,62.6414531 C86.3351111,66.6516914 89.5285926,71.5316133 91.9084444,77.1771211 C94.261037,82.8485156 95.4082963,88.975957 95.4082963,95.585332 C95.4082963,101.765098 94.3155556,107.650746 92.2136296,113.150848 C90.1211852,118.65866 87.0841481,123.409148 83.1765926,127.522934 C79.2684444,131.653793 74.5277037,134.941406 68.8702222,137.402848 C63.2868148,139.786629 56.9626667,141 49.944,141 C42.4441481,141 35.6382222,139.588898 29.5179259,136.627898 C23.4438519,133.726934 18.2491852,129.571289 14.0180741,124.175285 C9.768,118.710434 6.49037037,112.118133 4.12888889,104.373047 C1.75851852,96.6362227 0.591703704,87.8154609 0.591703704,77.9267344 C0.591703704,63.8217773 1.75851852,51.8241094 4.12888889,41.859375 C6.49925926,31.9282383 9.8882963,23.8813242 14.2954074,17.7109219 C18.7214815,11.574668 24.0174815,7.09130859 30.2213333,4.25974219 C36.4435556,1.43698828 43.3508148,0 51.0539259,0 C57.0912593,0 62.7208889,1.01564062 67.8592593,3.02929688 C73.0077037,5.07765234 77.4331852,7.77097266 81.0811852,11.1621328 C84.7202963,14.5786289 87.72,18.4511719 89.9422222,22.8061992 C92.072,27.1865625 93.3395556,31.6528477 93.7099259,36.1626445 L75.8071111,36.161543 L75.8071111,36.161543 Z M49.8628148,125.276297 C58.6497778,125.276297 65.2145185,122.427656 69.4183704,116.893957 C73.7051852,111.265523 75.8071111,104.372496 75.8071111,96.1107773 C75.8071111,92.0917266 75.2702222,88.2450703 74.2420741,84.5785195 C73.1588148,80.9554805 71.5013333,77.7196406 69.2885926,74.8968867 C67.1499259,72.0647695 64.4180741,69.8021602 61.2145185,68.0897812 C58.0198519,66.3685898 54.3256296,65.542418 50.0755556,65.542418 C44.8625185,65.542418 40.4275556,66.5062852 36.872,68.4340195 C33.2607407,70.3788281 30.3534815,72.849082 28.1312593,75.8607539 C25.9647407,78.8300156 24.3718519,82.1165273 23.482963,85.6630078 C22.6124444,89.2342734 22.1401481,92.6942812 22.1401481,96.1107773 C22.1401481,104.897391 24.6491852,111.928664 29.7235556,117.281707 C34.7979259,122.55709 41.482963,125.276297 49.8628148,125.276297 Z" id="Shape"></path>
                </g>
            </g>
            <g id="dockandnumber" stroke-width="1" fill-rule="evenodd">
                <g id="Group">
                    <path d="M128,0 C57.3045,0 0,59.0952656 0,132 C0,204.904734 57.3045,264 128,264 C198.6955,264 256,204.904734 256,132 C256,59.0952656 198.6955,0 128,0 Z M128,243.375 C68.3515,243.375 20,193.512516 20,132 C20,70.4874844 68.3515,20.625 128,20.625 C187.6485,20.625 236,70.4874844 236,132 C236,193.512516 187.6485,243.375 128,243.375 Z" id="Shape" stroke="#000000" stroke-width="6" fill-rule="nonzero"></path>
                    <path d="M70.1015625,318 L185.609375,318 L219.710937,806 L36,806 L63.5224461,412.148438 L70.1015625,318 Z M94.283456,354 L90.4388067,434.257684 L74.3554688,770 C74.3554688,770 100.615234,790.097656 128.033203,790.097656 C155.451172,790.097656 181.710938,770 181.710938,770 L161.78295,354 L94.283456,354 Z" id="Combined-Shape" stroke="#020202" stroke-width="6"></path>
                </g>
            </g>
        </g>
    </g>
</svg>