<?xml version="1.0" encoding="UTF-8"?>
<svg width="262px" height="812px" viewBox="0 0 262 812" version="1.1" xmlns="http://www.w3.org/2000/svg" xmlns:xlink="http://www.w3.org/1999/xlink">
    <!-- Generator: Sketch 42 (36781) - http://www.bohemiancoding.com/sketch -->
    <title>docktwo</title>
    <desc>Created with Sketch.</desc>
    <defs></defs>
    <g id="Page-1" stroke="none" stroke-width="1" fill="none" fill-rule="evenodd">
        <g id="docktwo" transform="translate(3.000000, 3.000000)" fill="#4990E2">
            <g id="smalltwo" transform="translate(80.000000, 68.000000)" stroke-width="6" stroke="#000000" fill-rule="nonzero">
                <g id="two">
                    <path d="M0,45.0263672 C1.5091677,31.584 6.54052174,20.714332 15.1304348,12.4096523 C23.6833789,4.13085938 35.4037267,0 50.2264845,0 C57.5206957,0 64.0433292,1.17922266 69.6614161,3.57126563 C75.2795031,5.93797266 80.0216646,9.15673828 83.8044224,13.201125 C87.5776398,17.2113633 90.4940124,21.7641211 92.4599255,26.8588477 C94.4162981,31.9623867 95.404323,37.2377695 95.404323,42.6679219 C95.404323,47.4184102 94.8175901,51.6957773 93.5785342,55.4823984 C92.3293416,59.2690195 90.6251925,62.6337422 88.3981118,65.560043 C86.162087,68.5551914 83.609441,71.2743984 80.5815652,73.8217617 C77.6467081,76.4038242 74.4238509,78.8217539 70.9290932,81.1108008 C64.4625093,85.7401172 57.7365466,90.1722539 50.8513789,94.4408086 C43.9381863,98.7093633 37.304646,103.545773 30.9507578,108.941777 C28.6401988,110.964246 26.7398758,113.038488 25.2301118,115.249875 C23.7394286,117.462363 22.4908323,120.22398 21.4938634,123.520957 L91.481441,123.520957 L91.481441,141 L1.5091677,141 L1.5091677,127.669441 C1.5091677,122.135742 3.41008696,116.653816 7.24829814,111.378434 C11.0871056,106.017129 15.8572919,100.810043 21.6333913,95.8359375 C27.3725217,90.861832 33.6709565,86.0166094 40.5835528,81.3178945 C47.5056894,76.6274414 54.0181863,72.0834961 60.1955776,67.6689844 C64.8727453,64.3731094 68.5618882,60.8618789 71.3291925,57.0752578 C74.0219627,53.2974492 75.4190311,48.4693008 75.4190311,42.5654766 C75.4190311,34.2090234 73.1460373,27.6773086 68.4223602,22.995668 C63.7827578,18.3228398 57.7264099,15.9820195 50.2264845,15.9820195 C41.068323,15.9820195 33.8104845,18.5723438 28.4905342,23.7529922 C23.1240745,28.9165664 20.4778137,36.007875 20.4778137,45.026918 L0,45.0263672 L0,45.0263672 Z" id="Shape"></path>
                </g>
            </g>
            <g id="dockandnumber" stroke-width="1" fill-rule="evenodd">
                <g id="Group">
                    <path d="M128,0 C57.3045,0 0,59.0952656 0,132 C0,204.904734 57.3045,264 128,264 C198.6955,264 256,204.904734 256,132 C256,59.0952656 198.6955,0 128,0 Z M128,243.375 C68.3515,243.375 20,193.512516 20,132 C20,70.4874844 68.3515,20.625 128,20.625 C187.6485,20.625 236,70.4874844 236,132 C236,193.512516 187.6485,243.375 128,243.375 Z" id="Shape" stroke="#000000" stroke-width="6" fill-rule="nonzero"></path>
                    <path d="M70.1015625,318 L185.609375,318 L219.710937,806 L36,806 L63.5224461,412.148438 L70.1015625,318 Z M94.283456,354 L90.4388067,434.257684 L74.3554688,770 C74.3554688,770 100.615234,790.097656 128.033203,790.097656 C155.451172,790.097656 181.710938,770 181.710938,770 L161.78295,354 L94.283456,354 Z" id="Combined-Shape" stroke="#020202" stroke-width="6"></path>
                </g>
            </g>
        </g>
    </g>
</svg>