<?xml version="1.0" encoding="UTF-8"?>
<svg width="262px" height="812px" viewBox="0 0 262 812" version="1.1" xmlns="http://www.w3.org/2000/svg" xmlns:xlink="http://www.w3.org/1999/xlink">
    <!-- Generator: Sketch 42 (36781) - http://www.bohemiancoding.com/sketch -->
    <title>dockten</title>
    <desc>Created with Sketch.</desc>
    <defs></defs>
    <g id="Page-1" stroke="none" stroke-width="1" fill="none" fill-rule="evenodd">
        <g id="dockten" transform="translate(3.000000, 3.000000)" fill="#4990E2">
            <g id="smallzero" transform="translate(119.000000, 61.000000)" stroke-width="6" stroke="#000000" fill-rule="nonzero">
                <g id="zero">
                    <path d="M47.9904,0 C32.0808,0 20.1186,6.2480625 12.0372,18.6665273 C4.0128,31.1279531 0,48.0556641 0,69.40725 C0,93.0566953 4.0128,110.853539 12.0372,122.936578 C20.1186,134.950219 32.0814,141 47.9904,141 C63.9096,141 75.9276,134.950219 83.9436,122.936027 C91.9782,110.853539 96,93.0561445 96,69.40725 C96,23.1328125 79.9596,0 47.9904,0 Z M69.7314,111.653824 C65.2596,120.732902 57.966,125.190926 47.991,125.190926 C37.9782,125.190926 30.7692,120.732902 26.2314,111.653824 C21.7218,102.574746 19.5,88.5121992 19.5,69.40725 C19.5,50.465332 21.7218,36.8252344 26.2314,28.3828594 C30.7686,19.9746328 37.9782,15.7666641 47.991,15.7666641 C57.966,15.7666641 65.2596,19.9751836 69.7314,28.3828594 C74.2596,36.8252344 76.5,50.4658828 76.5,69.40725 C76.5,88.5121992 74.2596,102.574195 69.7314,111.653824 Z" id="Shape"></path>
                </g>
            </g>
            <g id="smallone" transform="translate(41.000000, 57.000000)" stroke-width="6" stroke="#000000" fill-rule="nonzero">
                <g id="one">
                    <path d="M30.2087604,40.3447266 L0,40.3447266 L0,26.5751953 L9.45483333,26.5751953 C12.8128854,26.5751953 16.0260208,25.903793 19.0017083,24.5956875 C22.0234167,23.287582 24.6015625,21.4887305 26.7356563,19.1996836 C28.8692604,16.88475 30.6141354,14.104957 31.8992917,10.809082 C33.2378125,7.55616797 33.8806354,3.92431641 33.8806354,0 L47,0 L47,141 L30.2087604,141 L30.2087604,40.3447266 Z" id="Shape"></path>
                </g>
            </g>
            <g id="dockandnumber" stroke-width="1" fill-rule="evenodd">
                <g id="Group">
                    <path d="M128,0 C57.3045,0 0,59.0952656 0,132 C0,204.904734 57.3045,264 128,264 C198.6955,264 256,204.904734 256,132 C256,59.0952656 198.6955,0 128,0 Z M128,243.375 C68.3515,243.375 20,193.512516 20,132 C20,70.4874844 68.3515,20.625 128,20.625 C187.6485,20.625 236,70.4874844 236,132 C236,193.512516 187.6485,243.375 128,243.375 Z" id="Shape" stroke="#000000" stroke-width="6" fill-rule="nonzero"></path>
                    <path d="M70.1015625,318 L185.609375,318 L219.710937,806 L36,806 L63.5224461,412.148438 L70.1015625,318 Z M94.283456,354 L90.4388067,434.257684 L74.3554688,770 C74.3554688,770 100.615234,790.097656 128.033203,790.097656 C155.451172,790.097656 181.710938,770 181.710938,770 L161.78295,354 L94.283456,354 Z" id="Combined-Shape" stroke="#020202" stroke-width="6"></path>
                </g>
            </g>
        </g>
    </g>
</svg>