<?xml version="1.0" encoding="UTF-8"?>
<svg width="262px" height="812px" viewBox="0 0 262 812" version="1.1" xmlns="http://www.w3.org/2000/svg" xmlns:xlink="http://www.w3.org/1999/xlink">
    <!-- Generator: Sketch 42 (36781) - http://www.bohemiancoding.com/sketch -->
    <title>dockeight</title>
    <desc>Created with Sketch.</desc>
    <defs></defs>
    <g id="Page-1" stroke="none" stroke-width="1" fill="none" fill-rule="evenodd">
        <g id="dockeight" transform="translate(3.000000, 3.000000)" fill="#4990E2">
            <g id="eight" transform="translate(80.000000, 76.000000)" stroke="#000000" stroke-width="6" fill-rule="nonzero">
                <path d="M90.7026,78.9853359 C88.8462,75.8524922 86.3712,73.0985859 83.418,70.7236172 C80.4828,68.3827969 76.968,66.5756836 72.8898,65.2675781 C78.777,62.5224844 83.5494,58.598168 87.2148,53.5034414 C90.9648,48.3999023 92.793,41.9111484 92.793,33.9595195 C92.793,29.2690664 91.7898,24.8628164 89.7078,20.731957 C87.6264,16.6010977 84.6732,13.012207 80.745,9.9316875 C76.8168,6.87650391 72.0732,4.423875 66.6078,2.67679687 C61.068,0.895019531 54.8712,0 47.9994,0 C40.9398,0 34.6962,0.895019531 29.1744,2.67624609 C23.6994,4.42332422 19.0116,6.87595313 15.168,9.93113672 C11.3148,13.012207 8.3898,16.6005469 6.4308,20.7314063 C4.4622,24.8622656 3.4872,29.2685156 3.4872,33.9589688 C3.4872,41.9111484 5.25,48.46875 8.8872,53.6323242 C12.459,58.7958984 17.334,62.7114023 23.4186,65.2675781 C19.1058,66.5756836 15.525,68.4345703 12.5814,70.8530508 C9.591,73.272082 7.2,76.1284336 5.3064,79.3730859 C3.4314,82.6089258 2.0814,86.0513086 1.2564,89.6578242 C0.4218,93.3414492 0,96.9292383 0,100.492793 C0,105.776988 1.1154,110.871715 3.3564,115.776973 C5.5782,120.612832 8.7378,124.899012 12.9378,128.616785 C17.1282,132.334559 22.1628,135.355043 28.0692,137.576344 C33.993,139.889625 40.593,141 47.9994,141 C55.4058,141 62.034,139.889625 67.9026,137.574691 C73.8654,135.354492 78.909,132.316383 83.109,128.486801 C87.216,124.734879 90.4308,120.336891 92.6622,115.388672 C94.884,110.440453 95.9994,105.328102 95.9994,99.9756094 C95.9994,96.4048945 95.5866,92.8248164 94.7526,89.2094883 C93.918,85.5346758 92.6244,82.1611406 90.7026,78.9853359 Z M23.2122,35.9296641 C23.2122,30.7231289 25.2654,26.0326758 29.3994,21.824707 C33.5244,17.625 39.8244,15.5077969 48.2712,15.5077969 C52.5558,15.5077969 56.268,16.1015391 59.3898,17.2119141 C62.5584,18.36525 65.0898,19.8969727 67.0584,21.824707 C69.1116,23.7612539 70.5546,25.9555664 71.5296,28.3740469 C72.5232,30.8266758 73.0482,33.3222656 73.0482,35.9302148 C73.0482,38.8306289 72.5046,41.5845352 71.3982,44.1489727 C70.3854,46.7481094 68.8296,49.0718555 66.7482,51.0855117 C64.6668,53.099168 62.0418,54.725625 58.92,55.9219219 C55.7598,57.1441055 52.2072,57.7637344 48.27,57.7637344 C40.0104,57.7637344 33.7296,55.5517969 29.5296,51.0855117 C25.3212,46.6186758 23.2122,41.5839844 23.2122,35.9296641 Z M74.484,109.458961 C73.3404,112.359375 71.6442,114.983848 69.2904,117.324668 C67.0308,119.674301 64.1154,121.576148 60.6372,122.943738 C57.1692,124.320691 53.0442,125.009168 48.2724,125.009168 C44.2878,125.009168 40.5756,124.320691 37.0878,122.943738 C33.6474,121.576148 30.6378,119.767934 28.0596,117.453 C25.4814,115.223988 23.4468,112.607777 21.975,109.595004 C20.4936,106.582781 19.7346,103.432863 19.7346,100.231723 C19.7346,96.9611836 20.3628,93.760043 21.6192,90.4895039 C22.8756,87.2883633 24.6192,84.4138359 26.9346,81.9182461 C29.25,79.387957 32.175,77.3836641 35.7378,75.8508398 C39.2628,74.2932305 43.3878,73.5270937 48.0006,73.5270937 C52.482,73.5270937 56.4756,74.2932305 60.0288,75.8508398 C63.564,77.3825625 66.5916,79.387957 68.9724,81.9182461 C71.3622,84.4138359 73.182,87.2883633 74.4288,90.4895039 C75.6006,93.760043 76.266,96.9611836 76.266,100.231723 C76.2648,103.435066 75.7026,106.567359 74.484,109.458961 Z" id="Shape"></path>
            </g>
            <g id="dockandnumber" stroke-width="1" fill-rule="evenodd">
                <g id="Group">
                    <path d="M128,0 C57.3045,0 0,59.0952656 0,132 C0,204.904734 57.3045,264 128,264 C198.6955,264 256,204.904734 256,132 C256,59.0952656 198.6955,0 128,0 Z M128,243.375 C68.3515,243.375 20,193.512516 20,132 C20,70.4874844 68.3515,20.625 128,20.625 C187.6485,20.625 236,70.4874844 236,132 C236,193.512516 187.6485,243.375 128,243.375 Z" id="Shape" stroke="#000000" stroke-width="6" fill-rule="nonzero"></path>
                    <path d="M70.1015625,318 L185.609375,318 L219.710937,806 L36,806 L63.5224461,412.148438 L70.1015625,318 Z M94.283456,354 L90.4388067,434.257684 L74.3554688,770 C74.3554688,770 100.615234,790.097656 128.033203,790.097656 C155.451172,790.097656 181.710938,770 181.710938,770 L161.78295,354 L94.283456,354 Z" id="Combined-Shape" stroke="#020202" stroke-width="6"></path>
                </g>
            </g>
        </g>
    </g>
</svg>