<?xml version="1.0" encoding="UTF-8"?>
<svg width="262px" height="812px" viewBox="0 0 262 812" version="1.1" xmlns="http://www.w3.org/2000/svg" xmlns:xlink="http://www.w3.org/1999/xlink">
    <!-- Generator: Sketch 42 (36781) - http://www.bohemiancoding.com/sketch -->
    <title>docknine</title>
    <desc>Created with Sketch.</desc>
    <defs></defs>
    <g id="Page-1" stroke="none" stroke-width="1" fill="none" fill-rule="evenodd">
        <g id="docknine" transform="translate(3.000000, 3.000000)" fill="#4990E2">
            <g id="nine" transform="translate(80.000000, 57.000000)" stroke="#000000" stroke-width="6" fill-rule="nonzero">
                <path d="M20.0300124,103.701934 C21.9309317,111.117875 25.4710062,116.552136 30.6883975,119.843965 C35.8592795,123.145121 41.2161988,124.791035 46.6017391,124.791035 C52.3688944,124.791035 57.1951304,123.453455 61.1174161,120.856202 C65.0212174,118.344537 68.1605963,114.821183 70.5832547,110.517117 C73.0148571,106.153798 74.6724969,101.207276 75.7362484,95.6095214 C76.7427578,90.0891245 77.2549565,84.3196459 77.2549565,78.3274202 C72.8669814,84.3196459 67.8731925,88.3312879 62.4226584,90.406786 C57.0001491,92.5585447 51.7082236,93.5521284 46.6029317,93.5521284 C41.2179876,93.5521284 35.7394286,92.464179 30.336,90.2773074 C24.9134907,88.0915331 19.9757516,85.0564669 15.5597516,81.1134047 C11.1998012,77.1615642 7.58459627,72.4893619 4.80834783,67.0891167 C2.01182609,61.7053307 0.595677019,55.6873191 0.595677019,49.0866537 C0.595677019,42.4689805 1.62067081,36.1936576 3.59552795,30.2272179 C5.60795031,24.2695564 8.52432298,19.0657237 12.3440497,14.6250467 C16.2102857,10.2019261 20.971528,6.65278599 26.7386832,3.98640467 C32.4593292,1.35458755 39.0743851,0 46.6017391,0 C62.1233292,0 74.2258882,5.48638132 82.937441,16.4503658 C91.6388571,27.4154475 95.9988075,43.1372218 95.9988075,63.5739922 C95.9988075,72.2836226 95.3095155,81.2077704 93.9488199,90.2773074 C92.5785839,99.4329805 90.0444224,107.67956 86.3743602,115.077397 C82.6846211,122.49279 77.6538634,128.622175 71.2814907,133.328393 C64.8995776,138.11142 56.6632547,140.451911 46.6011429,140.451911 C41.3652671,140.451911 36.1848447,139.774891 31.0235031,138.403296 C25.9271553,137.0317 21.3901118,134.940292 17.3742112,131.982584 C13.3773913,129.085774 10.0418385,125.339673 7.32163975,120.666922 C4.60144099,116.003498 3.02668323,110.294918 2.49540373,103.701934 L20.0300124,103.701934 Z M46.5176646,77.8385837 C50.3284472,77.8385837 53.9985093,77.0671984 57.4091925,75.4382918 C60.8938137,73.8093852 63.8286708,71.6066031 66.3628323,68.7860545 C68.8409441,65.974284 70.8533665,62.673677 72.3541863,58.8589961 C73.8627578,55.0783307 74.6546087,51.0238949 74.6546087,46.6517977 C74.6546087,42.3142646 73.8627578,38.2762879 72.3541863,34.564751 C70.8533665,30.8702218 68.8409441,27.5866226 66.3628323,24.7748521 C63.8286708,21.9630817 60.8938137,19.7515214 57.4091925,18.1226148 C53.9985093,16.5282724 50.3284472,15.7053152 46.5176646,15.7053152 C42.8004969,15.7053152 39.3439006,16.5282724 36.1293913,18.1226148 C32.9429068,19.7515214 30.1016646,21.9630817 27.7070311,24.7748521 C25.3219379,27.5866226 23.3655652,30.8696732 21.9303354,34.564751 C20.4957019,38.2768366 19.7688447,42.3142646 19.7688447,46.6517977 C19.7688447,51.0238949 20.4957019,55.0783307 21.9303354,58.8589961 C23.3649689,62.673677 25.3219379,65.974284 27.7070311,68.7860545 C30.1016646,71.6066031 32.9429068,73.8093852 36.1293913,75.4382918 C39.3433043,77.0671984 42.7999006,77.8385837 46.5176646,77.8385837 Z" id="Shape"></path>
            </g>
            <g id="dockandnumber" stroke-width="1" fill-rule="evenodd">
                <g id="Group">
                    <path d="M128,0 C57.3045,0 0,59.0952656 0,132 C0,204.904734 57.3045,264 128,264 C198.6955,264 256,204.904734 256,132 C256,59.0952656 198.6955,0 128,0 Z M128,243.375 C68.3515,243.375 20,193.512516 20,132 C20,70.4874844 68.3515,20.625 128,20.625 C187.6485,20.625 236,70.4874844 236,132 C236,193.512516 187.6485,243.375 128,243.375 Z" id="Shape" stroke="#000000" stroke-width="6" fill-rule="nonzero"></path>
                    <path d="M70.1015625,318 L185.609375,318 L219.710937,806 L36,806 L63.5224461,412.148438 L70.1015625,318 Z M94.283456,354 L90.4388067,434.257684 L74.3554688,770 C74.3554688,770 100.615234,790.097656 128.033203,790.097656 C155.451172,790.097656 181.710938,770 181.710938,770 L161.78295,354 L94.283456,354 Z" id="Combined-Shape" stroke="#020202" stroke-width="6"></path>
                </g>
            </g>
        </g>
    </g>
</svg>